<mxfile host="Electron" modified="2023-11-20T06:04:28.881Z" agent="Mozilla/5.0 (Windows NT 10.0; Win64; x64) AppleWebKit/537.36 (KHTML, like Gecko) draw.io/22.1.2 Chrome/114.0.5735.289 Electron/25.9.4 Safari/537.36" etag="6jBW56ru8_FEC0ahu-Es" version="22.1.2" type="device">
  <diagram name="Page-1" id="9b4xbDOtlsbXX10Xtmvf">
    <mxGraphModel dx="1235" dy="731" grid="1" gridSize="10" guides="1" tooltips="1" connect="1" arrows="1" fold="1" page="1" pageScale="1" pageWidth="850" pageHeight="1100" math="0" shadow="0">
      <root>
        <mxCell id="0" />
        <mxCell id="1" parent="0" />
        <mxCell id="tOMrj2LPde5UPAp5Z0Ls-16" style="edgeStyle=orthogonalEdgeStyle;rounded=0;orthogonalLoop=1;jettySize=auto;html=1;exitX=0;exitY=0.5;exitDx=0;exitDy=0;entryX=1;entryY=0.5;entryDx=0;entryDy=0;" edge="1" parent="1" source="tOMrj2LPde5UPAp5Z0Ls-1" target="tOMrj2LPde5UPAp5Z0Ls-10">
          <mxGeometry relative="1" as="geometry" />
        </mxCell>
        <mxCell id="tOMrj2LPde5UPAp5Z0Ls-17" style="edgeStyle=orthogonalEdgeStyle;rounded=0;orthogonalLoop=1;jettySize=auto;html=1;exitX=0;exitY=0.5;exitDx=0;exitDy=0;entryX=1;entryY=0.5;entryDx=0;entryDy=0;" edge="1" parent="1" source="tOMrj2LPde5UPAp5Z0Ls-1" target="tOMrj2LPde5UPAp5Z0Ls-8">
          <mxGeometry relative="1" as="geometry" />
        </mxCell>
        <mxCell id="tOMrj2LPde5UPAp5Z0Ls-1" value="Mata kuliah" style="rounded=0;whiteSpace=wrap;html=1;" vertex="1" parent="1">
          <mxGeometry x="390" y="140" width="120" height="60" as="geometry" />
        </mxCell>
        <mxCell id="tOMrj2LPde5UPAp5Z0Ls-18" style="edgeStyle=orthogonalEdgeStyle;rounded=0;orthogonalLoop=1;jettySize=auto;html=1;exitX=0;exitY=0.5;exitDx=0;exitDy=0;entryX=1;entryY=0.5;entryDx=0;entryDy=0;" edge="1" parent="1" source="tOMrj2LPde5UPAp5Z0Ls-2" target="tOMrj2LPde5UPAp5Z0Ls-1">
          <mxGeometry relative="1" as="geometry">
            <Array as="points">
              <mxPoint x="580" y="90" />
              <mxPoint x="580" y="170" />
            </Array>
          </mxGeometry>
        </mxCell>
        <mxCell id="tOMrj2LPde5UPAp5Z0Ls-2" value="Mahasiswa" style="ellipse;whiteSpace=wrap;html=1;" vertex="1" parent="1">
          <mxGeometry x="620" y="50" width="120" height="80" as="geometry" />
        </mxCell>
        <mxCell id="tOMrj2LPde5UPAp5Z0Ls-20" style="edgeStyle=orthogonalEdgeStyle;rounded=0;orthogonalLoop=1;jettySize=auto;html=1;exitX=0;exitY=0.5;exitDx=0;exitDy=0;entryX=1;entryY=0.5;entryDx=0;entryDy=0;" edge="1" parent="1" source="tOMrj2LPde5UPAp5Z0Ls-5" target="tOMrj2LPde5UPAp5Z0Ls-1">
          <mxGeometry relative="1" as="geometry">
            <Array as="points">
              <mxPoint x="580" y="250" />
              <mxPoint x="580" y="170" />
            </Array>
          </mxGeometry>
        </mxCell>
        <mxCell id="tOMrj2LPde5UPAp5Z0Ls-5" value="Dosen" style="ellipse;whiteSpace=wrap;html=1;" vertex="1" parent="1">
          <mxGeometry x="620" y="210" width="120" height="80" as="geometry" />
        </mxCell>
        <mxCell id="tOMrj2LPde5UPAp5Z0Ls-8" value="Semester" style="rounded=1;whiteSpace=wrap;html=1;" vertex="1" parent="1">
          <mxGeometry x="30" y="140" width="120" height="60" as="geometry" />
        </mxCell>
        <mxCell id="tOMrj2LPde5UPAp5Z0Ls-15" style="edgeStyle=orthogonalEdgeStyle;rounded=0;orthogonalLoop=1;jettySize=auto;html=1;exitX=0;exitY=0.5;exitDx=0;exitDy=0;entryX=0.5;entryY=1;entryDx=0;entryDy=0;" edge="1" parent="1" source="tOMrj2LPde5UPAp5Z0Ls-10" target="tOMrj2LPde5UPAp5Z0Ls-8">
          <mxGeometry relative="1" as="geometry" />
        </mxCell>
        <mxCell id="tOMrj2LPde5UPAp5Z0Ls-10" value="Kelas" style="shape=step;perimeter=stepPerimeter;whiteSpace=wrap;html=1;fixedSize=1;" vertex="1" parent="1">
          <mxGeometry x="220" y="280" width="120" height="80" as="geometry" />
        </mxCell>
        <mxCell id="tOMrj2LPde5UPAp5Z0Ls-23" style="edgeStyle=orthogonalEdgeStyle;rounded=0;orthogonalLoop=1;jettySize=auto;html=1;exitX=0.5;exitY=0;exitDx=0;exitDy=0;entryX=0.5;entryY=1;entryDx=0;entryDy=0;" edge="1" parent="1" source="tOMrj2LPde5UPAp5Z0Ls-21" target="tOMrj2LPde5UPAp5Z0Ls-1">
          <mxGeometry relative="1" as="geometry" />
        </mxCell>
        <mxCell id="tOMrj2LPde5UPAp5Z0Ls-21" value="Materi" style="ellipse;whiteSpace=wrap;html=1;aspect=fixed;" vertex="1" parent="1">
          <mxGeometry x="540" y="340" width="80" height="80" as="geometry" />
        </mxCell>
        <mxCell id="tOMrj2LPde5UPAp5Z0Ls-24" style="edgeStyle=orthogonalEdgeStyle;rounded=0;orthogonalLoop=1;jettySize=auto;html=1;exitX=0.5;exitY=0;exitDx=0;exitDy=0;" edge="1" parent="1" source="tOMrj2LPde5UPAp5Z0Ls-22">
          <mxGeometry relative="1" as="geometry">
            <mxPoint x="450" y="200" as="targetPoint" />
          </mxGeometry>
        </mxCell>
        <mxCell id="tOMrj2LPde5UPAp5Z0Ls-22" value="Kuis" style="ellipse;whiteSpace=wrap;html=1;aspect=fixed;" vertex="1" parent="1">
          <mxGeometry x="410" y="340" width="80" height="80" as="geometry" />
        </mxCell>
        <mxCell id="tOMrj2LPde5UPAp5Z0Ls-30" style="edgeStyle=orthogonalEdgeStyle;rounded=0;orthogonalLoop=1;jettySize=auto;html=1;exitX=0;exitY=0;exitDx=30;exitDy=0;exitPerimeter=0;entryX=0.5;entryY=1;entryDx=0;entryDy=0;" edge="1" parent="1" source="tOMrj2LPde5UPAp5Z0Ls-25" target="tOMrj2LPde5UPAp5Z0Ls-21">
          <mxGeometry relative="1" as="geometry" />
        </mxCell>
        <mxCell id="tOMrj2LPde5UPAp5Z0Ls-25" value="URL Video" style="shape=note;whiteSpace=wrap;html=1;backgroundOutline=1;darkOpacity=0.05;" vertex="1" parent="1">
          <mxGeometry x="790" y="520" width="60" height="80" as="geometry" />
        </mxCell>
        <mxCell id="tOMrj2LPde5UPAp5Z0Ls-29" style="edgeStyle=orthogonalEdgeStyle;rounded=0;orthogonalLoop=1;jettySize=auto;html=1;exitX=0;exitY=0;exitDx=30;exitDy=0;exitPerimeter=0;entryX=0.5;entryY=1;entryDx=0;entryDy=0;" edge="1" parent="1" source="tOMrj2LPde5UPAp5Z0Ls-26" target="tOMrj2LPde5UPAp5Z0Ls-21">
          <mxGeometry relative="1" as="geometry" />
        </mxCell>
        <mxCell id="tOMrj2LPde5UPAp5Z0Ls-26" value="Transcript" style="shape=note;whiteSpace=wrap;html=1;backgroundOutline=1;darkOpacity=0.05;" vertex="1" parent="1">
          <mxGeometry x="670" y="520" width="60" height="80" as="geometry" />
        </mxCell>
        <mxCell id="tOMrj2LPde5UPAp5Z0Ls-28" style="edgeStyle=orthogonalEdgeStyle;rounded=0;orthogonalLoop=1;jettySize=auto;html=1;exitX=0;exitY=0;exitDx=30;exitDy=0;exitPerimeter=0;entryX=0.5;entryY=1;entryDx=0;entryDy=0;" edge="1" parent="1" source="tOMrj2LPde5UPAp5Z0Ls-27" target="tOMrj2LPde5UPAp5Z0Ls-21">
          <mxGeometry relative="1" as="geometry" />
        </mxCell>
        <mxCell id="tOMrj2LPde5UPAp5Z0Ls-27" value="File&lt;br&gt;Materi" style="shape=note;whiteSpace=wrap;html=1;backgroundOutline=1;darkOpacity=0.05;" vertex="1" parent="1">
          <mxGeometry x="550" y="520" width="60" height="80" as="geometry" />
        </mxCell>
        <mxCell id="tOMrj2LPde5UPAp5Z0Ls-32" style="edgeStyle=orthogonalEdgeStyle;rounded=0;orthogonalLoop=1;jettySize=auto;html=1;exitX=0;exitY=0;exitDx=30;exitDy=0;exitPerimeter=0;entryX=0.5;entryY=1;entryDx=0;entryDy=0;" edge="1" parent="1" source="tOMrj2LPde5UPAp5Z0Ls-31" target="tOMrj2LPde5UPAp5Z0Ls-22">
          <mxGeometry relative="1" as="geometry" />
        </mxCell>
        <mxCell id="tOMrj2LPde5UPAp5Z0Ls-31" value="Soal" style="shape=card;whiteSpace=wrap;html=1;" vertex="1" parent="1">
          <mxGeometry x="420" y="525" width="60" height="70" as="geometry" />
        </mxCell>
      </root>
    </mxGraphModel>
  </diagram>
</mxfile>
